<mxfile host="app.diagrams.net" modified="2023-08-08T01:51:49.308Z" agent="Mozilla/5.0 (Windows NT 10.0; Win64; x64) AppleWebKit/537.36 (KHTML, like Gecko) Chrome/115.0.0.0 Safari/537.36 Edg/115.0.1901.188" etag="a6lI7HyHkqVxDdN_cQJS" version="21.6.6" type="github">
  <diagram name="第 1 页" id="-II_i2vu-rk2r72lf3mZ">
    <mxGraphModel dx="1140" dy="796" grid="1" gridSize="10" guides="1" tooltips="1" connect="1" arrows="1" fold="1" page="1" pageScale="1" pageWidth="1169" pageHeight="827" math="0" shadow="0">
      <root>
        <mxCell id="0" />
        <mxCell id="1" parent="0" />
        <mxCell id="hftpEZkPXTDkG8xJH0wF-1" value="" style="shape=umlActor;verticalLabelPosition=bottom;verticalAlign=top;html=1;outlineConnect=0;" parent="1" vertex="1">
          <mxGeometry x="374" y="50" width="30" height="60" as="geometry" />
        </mxCell>
        <mxCell id="hftpEZkPXTDkG8xJH0wF-4" value="" style="group" parent="1" vertex="1" connectable="0">
          <mxGeometry x="120" y="190" width="630" height="180" as="geometry" />
        </mxCell>
        <mxCell id="hftpEZkPXTDkG8xJH0wF-2" value="" style="rounded=1;whiteSpace=wrap;html=1;fillColor=#e1d5e7;strokeColor=#9673a6;" parent="hftpEZkPXTDkG8xJH0wF-4" vertex="1">
          <mxGeometry width="630" height="180" as="geometry" />
        </mxCell>
        <mxCell id="hftpEZkPXTDkG8xJH0wF-3" value="&lt;font style=&quot;font-size: 16px;&quot;&gt;供应商后台library&lt;/font&gt;" style="text;html=1;strokeColor=none;fillColor=none;align=center;verticalAlign=middle;whiteSpace=wrap;rounded=0;" parent="hftpEZkPXTDkG8xJH0wF-4" vertex="1">
          <mxGeometry x="10" width="110" height="60" as="geometry" />
        </mxCell>
        <mxCell id="hftpEZkPXTDkG8xJH0wF-9" value="更新品牌" style="ellipse;whiteSpace=wrap;html=1;" parent="hftpEZkPXTDkG8xJH0wF-4" vertex="1">
          <mxGeometry x="5" y="70" width="105" height="70" as="geometry" />
        </mxCell>
        <mxCell id="hftpEZkPXTDkG8xJH0wF-10" value="删除品牌" style="ellipse;whiteSpace=wrap;html=1;" parent="hftpEZkPXTDkG8xJH0wF-4" vertex="1">
          <mxGeometry x="130" y="70" width="110" height="70" as="geometry" />
        </mxCell>
        <mxCell id="hftpEZkPXTDkG8xJH0wF-17" value="修改供应商" style="ellipse;whiteSpace=wrap;html=1;" parent="hftpEZkPXTDkG8xJH0wF-4" vertex="1">
          <mxGeometry x="260" y="70" width="110" height="70" as="geometry" />
        </mxCell>
        <mxCell id="7rtt_k1ajFSySWJWHBHQ-7" value="新增供应商" style="ellipse;whiteSpace=wrap;html=1;" vertex="1" parent="hftpEZkPXTDkG8xJH0wF-4">
          <mxGeometry x="380" y="70" width="110" height="70" as="geometry" />
        </mxCell>
        <mxCell id="7rtt_k1ajFSySWJWHBHQ-8" value="删除供应商" style="ellipse;whiteSpace=wrap;html=1;" vertex="1" parent="hftpEZkPXTDkG8xJH0wF-4">
          <mxGeometry x="500" y="70" width="110" height="70" as="geometry" />
        </mxCell>
        <mxCell id="hftpEZkPXTDkG8xJH0wF-5" value="" style="group" parent="1" vertex="1" connectable="0">
          <mxGeometry x="120" y="480" width="610" height="180" as="geometry" />
        </mxCell>
        <mxCell id="hftpEZkPXTDkG8xJH0wF-6" value="" style="rounded=1;whiteSpace=wrap;html=1;fillColor=#fff2cc;strokeColor=#d6b656;" parent="hftpEZkPXTDkG8xJH0wF-5" vertex="1">
          <mxGeometry x="95" width="420" height="180" as="geometry" />
        </mxCell>
        <mxCell id="hftpEZkPXTDkG8xJH0wF-7" value="&lt;font style=&quot;font-size: 16px;&quot;&gt;指标门户前台&lt;br&gt;portal&lt;br&gt;&lt;/font&gt;" style="text;html=1;strokeColor=none;fillColor=none;align=center;verticalAlign=middle;whiteSpace=wrap;rounded=0;" parent="hftpEZkPXTDkG8xJH0wF-5" vertex="1">
          <mxGeometry x="110" y="10" width="110" height="60" as="geometry" />
        </mxCell>
        <mxCell id="7rtt_k1ajFSySWJWHBHQ-9" value="更新ES相关数据" style="ellipse;whiteSpace=wrap;html=1;" vertex="1" parent="hftpEZkPXTDkG8xJH0wF-5">
          <mxGeometry x="230" y="50" width="105" height="70" as="geometry" />
        </mxCell>
        <mxCell id="hftpEZkPXTDkG8xJH0wF-8" value="" style="endArrow=classic;html=1;rounded=0;" parent="1" source="hftpEZkPXTDkG8xJH0wF-1" edge="1">
          <mxGeometry width="50" height="50" relative="1" as="geometry">
            <mxPoint x="390" y="120" as="sourcePoint" />
            <mxPoint x="390" y="180" as="targetPoint" />
          </mxGeometry>
        </mxCell>
        <mxCell id="7rtt_k1ajFSySWJWHBHQ-10" value="" style="endArrow=classic;html=1;rounded=0;" edge="1" parent="1">
          <mxGeometry width="50" height="50" relative="1" as="geometry">
            <mxPoint x="170" y="380" as="sourcePoint" />
            <mxPoint x="320" y="470" as="targetPoint" />
          </mxGeometry>
        </mxCell>
        <mxCell id="7rtt_k1ajFSySWJWHBHQ-11" value="" style="endArrow=classic;html=1;rounded=0;" edge="1" parent="1">
          <mxGeometry width="50" height="50" relative="1" as="geometry">
            <mxPoint x="300" y="380" as="sourcePoint" />
            <mxPoint x="370" y="470" as="targetPoint" />
          </mxGeometry>
        </mxCell>
        <mxCell id="7rtt_k1ajFSySWJWHBHQ-12" value="" style="endArrow=classic;html=1;rounded=0;" edge="1" parent="1">
          <mxGeometry width="50" height="50" relative="1" as="geometry">
            <mxPoint x="430" y="380" as="sourcePoint" />
            <mxPoint x="410" y="470" as="targetPoint" />
          </mxGeometry>
        </mxCell>
        <mxCell id="7rtt_k1ajFSySWJWHBHQ-13" value="" style="endArrow=classic;html=1;rounded=0;" edge="1" parent="1">
          <mxGeometry width="50" height="50" relative="1" as="geometry">
            <mxPoint x="540" y="380" as="sourcePoint" />
            <mxPoint x="460" y="470" as="targetPoint" />
          </mxGeometry>
        </mxCell>
        <mxCell id="7rtt_k1ajFSySWJWHBHQ-14" value="" style="endArrow=classic;html=1;rounded=0;" edge="1" parent="1">
          <mxGeometry width="50" height="50" relative="1" as="geometry">
            <mxPoint x="650" y="400" as="sourcePoint" />
            <mxPoint x="510" y="470" as="targetPoint" />
          </mxGeometry>
        </mxCell>
        <mxCell id="7rtt_k1ajFSySWJWHBHQ-15" value="调用REST接口" style="rounded=0;whiteSpace=wrap;html=1;fillColor=#dae8fc;strokeColor=#6c8ebf;" vertex="1" parent="1">
          <mxGeometry x="630" y="420" width="150" height="40" as="geometry" />
        </mxCell>
      </root>
    </mxGraphModel>
  </diagram>
</mxfile>
